{
	"asset":{
		"generator":"Khronos glTF Blender I/O v3.6.27",
		"version":"2.0"
	},
	"extensionsUsed":[
		"KHR_materials_transmission",
		"KHR_materials_specular"
	],
	"scene":0,
	"scenes":[
		{
			"name":"Scene",
			"nodes":[
				0
			]
		}
	],
	"nodes":[
		{
			"mesh":0,
			"name":"rcube",
			"rotation":[
				0.7071068286895752,
				0,
				0,
				0.7071068286895752
			]
		}
	],
	"materials":[
		{
			"doubleSided":true,
			"extensions":{
				"KHR_materials_transmission":{
					"transmissionFactor":1
				},
				"KHR_materials_specular":{
					"specularColorFactor":[
						1,
						1,
						1
					]
				}
			},
			"name":"Material__37",
			"pbrMetallicRoughness":{
				"baseColorFactor":[
					0.8077999949455261,
					0.3019999861717224,
					0.26269999146461487,
					1
				],
				"metallicFactor":0,
				"roughnessFactor":0.8999999761581421
			}
		},
		{
			"doubleSided":true,
			"extensions":{
				"KHR_materials_transmission":{
					"transmissionFactor":1
				},
				"KHR_materials_specular":{
					"specularColorFactor":[
						1,
						1,
						1
					]
				}
			},
			"name":"Material__39",
			"pbrMetallicRoughness":{
				"baseColorFactor":[
					0.5879999995231628,
					0.5879999995231628,
					0.5879999995231628,
					1
				],
				"metallicFactor":0,
				"roughnessFactor":0.8999999761581421
			}
		},
		{
			"doubleSided":true,
			"extensions":{
				"KHR_materials_transmission":{
					"transmissionFactor":1
				},
				"KHR_materials_specular":{
					"specularColorFactor":[
						1,
						1,
						1
					]
				}
			},
			"name":"01___Default",
			"pbrMetallicRoughness":{
				"baseColorFactor":[
					0.7451000213623047,
					0,
					0.24709999561309814,
					1
				],
				"metallicFactor":0,
				"roughnessFactor":0.8999999761581421
			}
		},
		{
			"doubleSided":true,
			"extensions":{
				"KHR_materials_transmission":{
					"transmissionFactor":1
				},
				"KHR_materials_specular":{
					"specularColorFactor":[
						1,
						1,
						1
					]
				}
			},
			"name":"Material__36",
			"pbrMetallicRoughness":{
				"baseColorFactor":[
					0.6118000149726868,
					0.5881999731063843,
					0.9175999760627747,
					1
				],
				"metallicFactor":0,
				"roughnessFactor":0.8999999761581421
			}
		},
		{
			"doubleSided":true,
			"extensions":{
				"KHR_materials_transmission":{
					"transmissionFactor":1
				},
				"KHR_materials_specular":{
					"specularColorFactor":[
						1,
						1,
						1
					]
				}
			},
			"name":"Material__40",
			"pbrMetallicRoughness":{
				"baseColorFactor":[
					0.5881999731063843,
					0.8626999855041504,
					0.666700005531311,
					1
				],
				"metallicFactor":0,
				"roughnessFactor":0.8999999761581421
			}
		},
		{
			"doubleSided":true,
			"extensions":{
				"KHR_materials_transmission":{
					"transmissionFactor":1
				},
				"KHR_materials_specular":{
					"specularColorFactor":[
						1,
						1,
						1
					]
				}
			},
			"name":"Material__41",
			"pbrMetallicRoughness":{
				"baseColorFactor":[
					0.5881999731063843,
					0.8823999762535095,
					0.8587999939918518,
					1
				],
				"metallicFactor":0,
				"roughnessFactor":0.8999999761581421
			}
		},
		{
			"doubleSided":true,
			"extensions":{
				"KHR_materials_transmission":{
					"transmissionFactor":1
				},
				"KHR_materials_specular":{
					"specularColorFactor":[
						1,
						1,
						1
					]
				}
			},
			"name":"Material__38",
			"pbrMetallicRoughness":{
				"baseColorFactor":[
					0.9254999756813049,
					0.5881999731063843,
					0.9136999845504761,
					1
				],
				"metallicFactor":0,
				"roughnessFactor":0.8999999761581421
			}
		}
	],
	"meshes":[
		{
			"name":"rcube",
			"primitives":[
				{
					"attributes":{
						"POSITION":0,
						"NORMAL":1,
						"TEXCOORD_0":2
					},
					"indices":3,
					"material":0
				},
				{
					"attributes":{
						"POSITION":4,
						"NORMAL":5,
						"TEXCOORD_0":6
					},
					"indices":7,
					"material":1
				},
				{
					"attributes":{
						"POSITION":8,
						"NORMAL":9,
						"TEXCOORD_0":10
					},
					"indices":11,
					"material":2
				},
				{
					"attributes":{
						"POSITION":12,
						"NORMAL":13,
						"TEXCOORD_0":14
					},
					"indices":11,
					"material":3
				},
				{
					"attributes":{
						"POSITION":15,
						"NORMAL":16,
						"TEXCOORD_0":17
					},
					"indices":11,
					"material":4
				},
				{
					"attributes":{
						"POSITION":18,
						"NORMAL":19,
						"TEXCOORD_0":20
					},
					"indices":21,
					"material":5
				},
				{
					"attributes":{
						"POSITION":22,
						"NORMAL":23,
						"TEXCOORD_0":24
					},
					"indices":25,
					"material":6
				}
			]
		}
	],
	"accessors":[
		{
			"bufferView":0,
			"componentType":5126,
			"count":108,
			"max":[
				1.4299999475479126,
				1.4299999475479126,
				-1.0049999952316284
			],
			"min":[
				-1.4299999475479126,
				-1.4299999475479126,
				-3.005000114440918
			],
			"type":"VEC3"
		},
		{
			"bufferView":1,
			"componentType":5126,
			"count":108,
			"type":"VEC3"
		},
		{
			"bufferView":2,
			"componentType":5126,
			"count":108,
			"type":"VEC2"
		},
		{
			"bufferView":3,
			"componentType":5123,
			"count":162,
			"type":"SCALAR"
		},
		{
			"bufferView":4,
			"componentType":5126,
			"count":5616,
			"max":[
				1.5,
				1.5,
				-0.004999999888241291
			],
			"min":[
				-1.5,
				-1.5,
				-3.005000114440918
			],
			"type":"VEC3"
		},
		{
			"bufferView":5,
			"componentType":5126,
			"count":5616,
			"type":"VEC3"
		},
		{
			"bufferView":6,
			"componentType":5126,
			"count":5616,
			"type":"VEC2"
		},
		{
			"bufferView":7,
			"componentType":5123,
			"count":25920,
			"type":"SCALAR"
		},
		{
			"bufferView":8,
			"componentType":5126,
			"count":108,
			"max":[
				0.5,
				1.4299999475479126,
				-0.07500000298023224
			],
			"min":[
				-1.5,
				-1.4299999475479126,
				-2.934999942779541
			],
			"type":"VEC3"
		},
		{
			"bufferView":9,
			"componentType":5126,
			"count":108,
			"type":"VEC3"
		},
		{
			"bufferView":10,
			"componentType":5126,
			"count":108,
			"type":"VEC2"
		},
		{
			"bufferView":11,
			"componentType":5123,
			"count":162,
			"type":"SCALAR"
		},
		{
			"bufferView":12,
			"componentType":5126,
			"count":108,
			"max":[
				1.4299999475479126,
				1.5,
				-0.07500000298023224
			],
			"min":[
				-1.4299999475479126,
				-0.5,
				-2.934999942779541
			],
			"type":"VEC3"
		},
		{
			"bufferView":13,
			"componentType":5126,
			"count":108,
			"type":"VEC3"
		},
		{
			"bufferView":14,
			"componentType":5126,
			"count":108,
			"type":"VEC2"
		},
		{
			"bufferView":15,
			"componentType":5126,
			"count":108,
			"max":[
				1.5,
				1.4299999475479126,
				-0.07500000298023224
			],
			"min":[
				-0.5,
				-1.4299999475479126,
				-2.934999942779541
			],
			"type":"VEC3"
		},
		{
			"bufferView":16,
			"componentType":5126,
			"count":108,
			"type":"VEC3"
		},
		{
			"bufferView":17,
			"componentType":5126,
			"count":108,
			"type":"VEC2"
		},
		{
			"bufferView":18,
			"componentType":5126,
			"count":108,
			"max":[
				1.4299999475479126,
				0.5,
				-0.07500000298023224
			],
			"min":[
				-1.4299999475479126,
				-1.5,
				-2.934999942779541
			],
			"type":"VEC3"
		},
		{
			"bufferView":19,
			"componentType":5126,
			"count":108,
			"type":"VEC3"
		},
		{
			"bufferView":20,
			"componentType":5126,
			"count":108,
			"type":"VEC2"
		},
		{
			"bufferView":21,
			"componentType":5123,
			"count":162,
			"type":"SCALAR"
		},
		{
			"bufferView":22,
			"componentType":5126,
			"count":108,
			"max":[
				1.4299999475479126,
				1.4299999475479126,
				-0.004999999888241291
			],
			"min":[
				-1.4299999475479126,
				-1.4299999475479126,
				-2.005000114440918
			],
			"type":"VEC3"
		},
		{
			"bufferView":23,
			"componentType":5126,
			"count":108,
			"type":"VEC3"
		},
		{
			"bufferView":24,
			"componentType":5126,
			"count":108,
			"type":"VEC2"
		},
		{
			"bufferView":25,
			"componentType":5123,
			"count":162,
			"type":"SCALAR"
		}
	],
	"bufferViews":[
		{
			"buffer":0,
			"byteLength":1296,
			"byteOffset":0,
			"target":34962
		},
		{
			"buffer":0,
			"byteLength":1296,
			"byteOffset":1296,
			"target":34962
		},
		{
			"buffer":0,
			"byteLength":864,
			"byteOffset":2592,
			"target":34962
		},
		{
			"buffer":0,
			"byteLength":324,
			"byteOffset":3456,
			"target":34963
		},
		{
			"buffer":0,
			"byteLength":67392,
			"byteOffset":3780,
			"target":34962
		},
		{
			"buffer":0,
			"byteLength":67392,
			"byteOffset":71172,
			"target":34962
		},
		{
			"buffer":0,
			"byteLength":44928,
			"byteOffset":138564,
			"target":34962
		},
		{
			"buffer":0,
			"byteLength":51840,
			"byteOffset":183492,
			"target":34963
		},
		{
			"buffer":0,
			"byteLength":1296,
			"byteOffset":235332,
			"target":34962
		},
		{
			"buffer":0,
			"byteLength":1296,
			"byteOffset":236628,
			"target":34962
		},
		{
			"buffer":0,
			"byteLength":864,
			"byteOffset":237924,
			"target":34962
		},
		{
			"buffer":0,
			"byteLength":324,
			"byteOffset":238788,
			"target":34963
		},
		{
			"buffer":0,
			"byteLength":1296,
			"byteOffset":239112,
			"target":34962
		},
		{
			"buffer":0,
			"byteLength":1296,
			"byteOffset":240408,
			"target":34962
		},
		{
			"buffer":0,
			"byteLength":864,
			"byteOffset":241704,
			"target":34962
		},
		{
			"buffer":0,
			"byteLength":1296,
			"byteOffset":242568,
			"target":34962
		},
		{
			"buffer":0,
			"byteLength":1296,
			"byteOffset":243864,
			"target":34962
		},
		{
			"buffer":0,
			"byteLength":864,
			"byteOffset":245160,
			"target":34962
		},
		{
			"buffer":0,
			"byteLength":1296,
			"byteOffset":246024,
			"target":34962
		},
		{
			"buffer":0,
			"byteLength":1296,
			"byteOffset":247320,
			"target":34962
		},
		{
			"buffer":0,
			"byteLength":864,
			"byteOffset":248616,
			"target":34962
		},
		{
			"buffer":0,
			"byteLength":324,
			"byteOffset":249480,
			"target":34963
		},
		{
			"buffer":0,
			"byteLength":1296,
			"byteOffset":249804,
			"target":34962
		},
		{
			"buffer":0,
			"byteLength":1296,
			"byteOffset":251100,
			"target":34962
		},
		{
			"buffer":0,
			"byteLength":864,
			"byteOffset":252396,
			"target":34962
		},
		{
			"buffer":0,
			"byteLength":324,
			"byteOffset":253260,
			"target":34963
		}
	],
	"buffers":[
		{
			"byteLength":253584,
			"uri":"data:application/octet-stream;base64,"
		}
	]
}
